<?xml version="1.0" encoding="UTF-8" standalone="no"?>
<svg
   version="1.1"
   id="Layer_1"
   x="0px"
   y="0px"
   width="72"
   viewBox="0 0 72 23"
   enable-background="new 0 0 372 119"
   xml:space="preserve"
   sodipodi:docname="travl-dark.svg"
   height="23"
   inkscape:version="1.4 (e7c3feb100, 2024-10-09)"
   xmlns:inkscape="http://www.inkscape.org/namespaces/inkscape"
   xmlns:sodipodi="http://sodipodi.sourceforge.net/DTD/sodipodi-0.dtd"
   xmlns="http://www.w3.org/2000/svg"
   xmlns:svg="http://www.w3.org/2000/svg"><sodipodi:namedview
   id="namedview1"
   pagecolor="#505050"
   bordercolor="#eeeeee"
   borderopacity="1"
   inkscape:showpageshadow="0"
   inkscape:pageopacity="0"
   inkscape:pagecheckerboard="0"
   inkscape:deskcolor="#505050"
   inkscape:zoom="26.900471"
   inkscape:cx="63.69777"
   inkscape:cy="17.732032"
   inkscape:window-width="1920"
   inkscape:window-height="1017"
   inkscape:window-x="1600"
   inkscape:window-y="0"
   inkscape:window-maximized="1"
   inkscape:current-layer="Layer_1" /><defs
   id="defs14" />

<path
   fill="#222222"
   opacity="1"
   stroke="none"
   d="m 31.726903,23 c -2.838293,-1.605097 -3.821523,-3.626561 -3.273589,-6.434705 0.319696,-1.638414 1.262194,-2.720141 2.755846,-3.380164 1.913467,-0.845535 3.942757,-0.919816 5.982281,-0.940351 0.343922,-0.0035 0.687904,-4.87e-4 1.017993,-4.87e-4 0.151409,-1.61828 -0.479364,-2.45434 -1.926509,-2.300491 -1.545413,0.164296 -3.059428,0.62664 -4.689689,0.981178 -0.467428,-1.071739 -1.005968,-2.3065242 -1.55958,-3.5758714 1.833535,-0.9816516 3.758528,-1.3935526 5.727906,-1.4486699 1.435977,-0.040187 2.925155,0.0075 4.309815,0.3477902 2.497947,0.6138883 3.953801,2.6286621 3.977807,5.2121491 0.0332,3.57235 0.0143,7.145279 -0.0057,10.717827 -0.0012,0.223905 -0.205288,0.446665 -0.344585,0.745878 -1.13357,0.07592 -2.23754,0.07592 -3.450136,0.0098 -0.493801,-0.803997 -0.878972,-1.541847 -1.171357,-2.101947 -1.209316,0.736555 -2.384513,1.452326 -3.559711,2.168095 -1.233299,0 -2.466596,0 -3.790805,0 m 5.14466,-4.132484 c 1.388803,-0.827258 1.735211,-1.662206 1.397599,-3.536668 -0.814637,0.08874 -1.670103,0.07194 -2.451576,0.305246 -0.5321,0.158859 -1.173373,0.574524 -1.377767,1.045362 -0.219645,0.505961 -0.18567,1.330878 0.09488,1.801886 0.482109,0.809386 1.384047,0.643769 2.336861,0.384174 z"
   id="path2"
   style="fill:#ebebeb" />
<path
   fill="#242424"
   opacity="1"
   stroke="none"
   d="M 0.20903938,7.998619 C 0.31737809,7.9288273 0.42129553,7.8506147 0.53472201,7.7905135 2.1207624,6.9501157 3.2069467,5.68774 3.6402955,3.9300143 3.8885294,2.9231403 4.4655438,2.624198 5.447744,2.736889 c 0.7644916,0.087712 1.5469328,0.017548 2.441539,0.017548 0,1.1160702 0,2.1989181 0,3.3840078 1.4244362,0 2.732621,0 4.074603,0 0,1.4587203 0,2.8116011 0,4.2681082 -1.32663,0 -2.6361567,0 -4.0253092,0 0,2.36748 -0.028993,4.633304 0.014803,6.897709 0.016645,0.860628 0.6173589,1.287193 1.4374393,1.227222 0.9251739,-0.06766 1.8420069,-0.25041 2.7975369,-0.388159 0,1.31907 0,2.670632 0,4.134025 -0.721431,0.196597 -1.462966,0.398671 -2.2472407,0.661698 -1.4700937,0.06095 -2.8974499,0.06095 -4.4355955,-0.0069 C 3.6060006,22.38152 2.5008562,21.160335 2.3495546,19.374987 2.1313047,16.799645 2.170117,14.202248 2.1024933,11.614178 2.0927443,11.241045 2.1011347,10.867434 2.1011347,10.389949 1.3045691,10.43991 0.65228465,10.480821 0,10.521732 c 0,0 0,-0.09749 0.07150588,-0.18443 C 0.1650211,9.49978 0.18703024,8.7491992 0.20903938,7.998619 Z"
   id="path3"
   style="fill:#ebebeb" />







<path
   fill="#242424"
   opacity="1"
   stroke="none"
   d="m 58.044524,22.722146 c -1.837139,0.07311 -3.65144,0.08016 -5.556897,0.0943 -1.644103,-4.030457 -3.198723,-8.067358 -4.749118,-12.105891 -0.565655,-1.473447 -1.121276,-2.9507796 -1.71414,-4.512369 2.002185,0 3.923462,0 5.979743,0 1.007519,3.535467 2.036669,7.146827 3.108714,10.908703 0.735795,-2.464831 1.43255,-4.799619 2.129809,-7.134254 0.314757,-1.0538905 0.661904,-2.0994491 0.931887,-3.1647643 0.125031,-0.4933445 0.315101,-0.6976518 0.844377,-0.6882231 1.710826,0.030479 3.422521,0.011373 5.341783,0.011373 C 62.236976,11.707474 60.15217,17.181783 58.044524,22.722146 Z"
   id="path11"
   style="fill:#ebebeb" />
<path
   fill="#212121"
   opacity="1"
   stroke="none"
   d="m 71.989605,22.693327 c -1.815978,0.09666 -3.62156,0.103942 -5.5178,0.108066 -0.102592,-5.471665 -0.116126,-10.940166 -0.125628,-16.408676 -0.0036,-2.0712495 0.0021,-4.1425149 0.02097,-6.3032451 C 68.217719,0 70.050914,0 72,0 c 0,7.5843156 0,15.094135 -0.0104,22.693327 z"
   id="path12"
   style="fill:#ebebeb" />
<path
   fill="#232323"
   opacity="1"
   stroke="none"
   d="m 20.808234,22.722567 c -1.848431,0.07696 -3.656741,0.0702 -5.55422,0.05917 -0.08917,-5.517465 -0.08917,-11.030657 -0.08917,-16.6474004 1.307137,0 2.592479,-0.022408 3.875338,0.024199 0.192086,0.00698 0.453533,0.3041958 0.543245,0.5245289 0.275596,0.6768776 0.483353,1.3816302 0.792726,2.2985685 1.623154,-2.4452548 3.653984,-3.6240166 6.538145,-2.9576806 -0.169948,1.7999082 -0.335955,3.5580736 -0.49863,5.2809756 -0.9561,0 -1.81951,-0.0476 -2.675895,0.01009 -1.68838,0.113738 -2.733891,1.081118 -2.791752,2.763066 -0.09809,2.851338 -0.07298,5.706952 -0.139784,8.644481 z"
   id="path13"
   style="fill:#ebebeb" />

<path
   style="fill:#212121;fill-opacity:1;stroke-width:0.00723143"
   d="m 66.370521,0.0620115 c 5.4e-5,-0.013535 0.0021,-0.031948 0.0044,-0.040918 l 0.0043,-0.016308 1.360982,0.00162 c 0.748541,8.91e-4 1.307411,0.00238 1.241936,0.00331 -0.915142,0.012962 -1.87876,0.040603 -2.516218,0.072176 l -0.0956,0.00473 z"
   id="path16" /></svg>
